<svg width="48" height="47" viewBox="0 0 48 47" fill="none" xmlns="http://www.w3.org/2000/svg">
<path d="M34.7944 0H12.2759C7.84468 0 5.62905 0 3.95499 0.89722C2.66183 1.5903 1.60103 2.64399 0.903273 3.92848C0 5.59132 0 7.7921 0 12.1937V34.5612C0 38.9627 0 41.1635 0.903273 42.8264C1.60103 44.1109 2.66183 45.1646 3.95499 45.8576C5.62905 46.7549 7.84468 46.7549 12.2759 46.7549H34.7944C39.2256 46.7549 41.4413 46.7549 43.1153 45.8576C44.4085 45.1646 45.4693 44.1109 46.167 42.8264C47.0703 41.1635 47.0703 38.9627 47.0703 34.5612V12.1937C47.0703 7.7921 47.0703 5.59132 46.167 3.92848C45.4693 2.64399 44.4085 1.5903 43.1153 0.89722C41.4413 0 39.2256 0 34.7944 0Z" fill="#9675F7"/>
<path fill-rule="evenodd" clip-rule="evenodd" d="M21.6965 37.9883L32.7286 8.76653H25.3738L14.3417 37.9883H21.6965Z" fill="white"/>
</svg>
